<mxfile host="app.diagrams.net" agent="Mozilla/5.0 (Windows NT 10.0; Win64; x64) AppleWebKit/537.36 (KHTML, like Gecko) Chrome/139.0.0.0 Safari/537.36 Edg/139.0.0.0" version="28.1.0">
  <diagram name="PÃ¡gina-1" id="p_jJ2mn6zd_OVtzq6YJ7">
    <mxGraphModel dx="1088" dy="600" grid="1" gridSize="10" guides="1" tooltips="1" connect="1" arrows="1" fold="1" page="1" pageScale="1" pageWidth="827" pageHeight="1169" math="0" shadow="0">
      <root>
        <mxCell id="0" />
        <mxCell id="1" parent="0" />
        <mxCell id="07pm5FfSkz1EEIoKYsBk-1" value="&lt;h1 style=&quot;margin-top: 0px;&quot;&gt;Goal&lt;/h1&gt;&lt;p&gt;Create a functional to-do list application that manages tasks effectively.&lt;/p&gt;" style="text;html=1;whiteSpace=wrap;overflow=hidden;rounded=0;" vertex="1" parent="1">
          <mxGeometry x="40" y="40" width="390" height="120" as="geometry" />
        </mxCell>
        <mxCell id="07pm5FfSkz1EEIoKYsBk-2" value="&lt;h1 style=&quot;margin-top: 0px;&quot;&gt;Top-Down Approach: Identify the core functions the application must preform and decompose into more specific tasks or operations&lt;/h1&gt;&lt;div&gt;&lt;br&gt;&lt;/div&gt;&lt;p&gt;&lt;/p&gt;&lt;ul&gt;&lt;li&gt;&lt;b&gt;TASK MANAGEMENT&lt;/b&gt;&lt;/li&gt;&lt;ul&gt;&lt;li&gt;&lt;b&gt;ADD A TASK&lt;/b&gt;&lt;/li&gt;&lt;ul&gt;&lt;li&gt;Assign a task name&lt;/li&gt;&lt;li&gt;Assign a task description&lt;/li&gt;&lt;li&gt;Assign a task due date&lt;/li&gt;&lt;/ul&gt;&lt;li&gt;&lt;b style=&quot;background-color: transparent; color: light-dark(rgb(0, 0, 0), rgb(255, 255, 255));&quot;&gt;VIEW A TASK&lt;/b&gt;&lt;/li&gt;&lt;ul&gt;&lt;li&gt;View the task name&lt;/li&gt;&lt;li&gt;View the task description&lt;/li&gt;&lt;li&gt;Viiew the task due date&lt;/li&gt;&lt;li&gt;Order tasks by due date (desc, asc order)&lt;/li&gt;&lt;li&gt;View tasks history&lt;/li&gt;&lt;/ul&gt;&lt;li&gt;&lt;b style=&quot;background-color: transparent; color: light-dark(rgb(0, 0, 0), rgb(255, 255, 255));&quot;&gt;EDIT A TASK&lt;/b&gt;&lt;/li&gt;&lt;ul&gt;&lt;li&gt;Mark a task as complete&lt;/li&gt;&lt;li&gt;Edit a task name&lt;/li&gt;&lt;li&gt;Edit a task description&lt;/li&gt;&lt;li&gt;Edit a task due date&lt;/li&gt;&lt;/ul&gt;&lt;li&gt;&lt;b style=&quot;background-color: transparent; color: light-dark(rgb(0, 0, 0), rgb(255, 255, 255));&quot;&gt;DELETE A TASK&lt;/b&gt;&lt;/li&gt;&lt;ul&gt;&lt;li&gt;Delete from task management&lt;/li&gt;&lt;/ul&gt;&lt;/ul&gt;&lt;li&gt;&lt;b&gt;USER INTERFACE&lt;/b&gt;&lt;/li&gt;&lt;ul&gt;&lt;li&gt;&lt;b&gt;SECTION TO ADD A TASK&lt;/b&gt;&lt;/li&gt;&lt;ul&gt;&lt;li&gt;&lt;b&gt;Add a in line text field aligned left to ask with max 64 char for a task name&lt;/b&gt;&lt;/li&gt;&lt;li&gt;&lt;b&gt;Add a multline text field aligned left to ask with max of 128 char for a task description&lt;/b&gt;&lt;/li&gt;&lt;li&gt;&lt;b&gt;Add a field to add due date in DD/MM/YYYY format&lt;/b&gt;&lt;/li&gt;&lt;li&gt;&lt;b&gt;Add a button to add the task if the user has assigned at least a name&lt;/b&gt;&lt;/li&gt;&lt;/ul&gt;&lt;li&gt;&lt;b&gt;SECTION TO VIEW ALL NON ARCHIVED TASKS&lt;/b&gt;&lt;/li&gt;&lt;ul&gt;&lt;li&gt;&lt;b&gt;Add a grid to list all tasks ordered by due date in both directions (desc, asc order)&lt;/b&gt;&lt;/li&gt;&lt;li&gt;&lt;b&gt;Add a special column field in the grid as checkbox so user can mark the task as complete&lt;/b&gt;&lt;/li&gt;&lt;li&gt;&lt;b&gt;Add a special column field in the grid as button so user can delete the task&lt;/b&gt;&lt;/li&gt;&lt;li&gt;&lt;b&gt;Add a special column field in the grid as button so user can edit the task&lt;/b&gt;&lt;/li&gt;&lt;/ul&gt;&lt;/ul&gt;&lt;/ul&gt;" style="text;html=1;whiteSpace=wrap;overflow=hidden;rounded=0;" vertex="1" parent="1">
          <mxGeometry x="40" y="160" width="640" height="600" as="geometry" />
        </mxCell>
        <mxCell id="07pm5FfSkz1EEIoKYsBk-3" value="&lt;h1 style=&quot;margin-top: 0px;&quot;&gt;Modularization Approach&lt;/h1&gt;&lt;p&gt;Each core function can be developed as a separated module:&lt;/p&gt;&lt;p&gt;&lt;/p&gt;&lt;ul&gt;&lt;li&gt;Add task module: Handle task creation&lt;/li&gt;&lt;li&gt;View task module: Manages displaying tasks&lt;/li&gt;&lt;li&gt;Edit task module: Allow users to mark tasks as completed, edit task name, edit task description, edit task due date&lt;/li&gt;&lt;li&gt;Delete task module: Manage the removal of tasks&lt;/li&gt;&lt;li&gt;Tasks storage module: A central hub to store and retrieve tasks data&lt;/li&gt;&lt;/ul&gt;&lt;p&gt;&lt;/p&gt;" style="text;html=1;whiteSpace=wrap;overflow=hidden;rounded=0;" vertex="1" parent="1">
          <mxGeometry x="40" y="760" width="640" height="200" as="geometry" />
        </mxCell>
      </root>
    </mxGraphModel>
  </diagram>
</mxfile>
